/* XPM */
static char *_5c539a9f424455b83ccf312d46e158f[] = {
/* columns rows colors chars-per-pixel */
"32 32 124 2 ",
"   c #020202",
".  c #0B0B0B",
"X  c #150505",
"o  c #160C0C",
"O  c #1D0808",
"+  c gray8",
"@  c #1C1B1B",
"#  c #240707",
"$  c #250A0A",
"%  c #290C0C",
"&  c #2D1414",
"*  c #241B1B",
"=  c #2F1F1F",
"-  c #311616",
";  c #341D1D",
":  c #242424",
">  c #2A2525",
",  c #2A2929",
"<  c #362323",
"1  c #3A2525",
"2  c #352C2C",
"3  c #3D2A2A",
"4  c #333333",
"5  c #3D3030",
"6  c #3C3C3C",
"7  c #412D2D",
"8  c #453333",
"9  c #4A3636",
"0  c #463D3D",
"q  c #4B3B3B",
"w  c #3A4455",
"e  c #3F4859",
"r  c #434343",
"t  c #4E4242",
"y  c #4E4E4E",
"u  c #514545",
"i  c #594747",
"p  c #564B4B",
"a  c #584F4F",
"s  c #424B5C",
"d  c #545454",
"f  c #5C5555",
"g  c #5C5B5B",
"h  c #614F4E",
"j  c #655353",
"k  c #685656",
"l  c #615B5B",
"z  c #6B5858",
"x  c #4C5464",
"c  c #545C6A",
"v  c #585F6E",
"b  c #5A616F",
"n  c #5D6472",
"m  c #646262",
"M  c #6A6363",
"N  c #6C6B6B",
"B  c #756666",
"V  c #746E6E",
"C  c #786B6B",
"Z  c #606775",
"A  c #636A77",
"S  c #666D7A",
"D  c #686F7C",
"F  c #6B717E",
"G  c #747373",
"H  c #7C7575",
"J  c gray50",
"K  c #827474",
"L  c #847C7C",
"P  c #8C7F7F",
"I  c #6E7481",
"U  c #707683",
"Y  c #747A86",
"T  c #797F8B",
"R  c #7D828D",
"E  c #848383",
"W  c #8F8484",
"Q  c #8C8B8B",
"!  c #938C8C",
"~  c #858B95",
"^  c #8E939D",
"/  c #949494",
"(  c #9A9292",
")  c #90959F",
"_  c #9D9D9D",
"`  c #A19797",
"'  c #A19C9C",
"]  c #9499A3",
"[  c #989DA6",
"{  c #9BA0A9",
"}  c #A5A4A4",
"|  c #ABA4A4",
" . c #A2A5AD",
".. c #AEACAC",
"X. c #B3ACAC",
"o. c #A5A9B0",
"O. c #A9ADB4",
"+. c #AFB3BA",
"@. c #B4B3B3",
"#. c #BDB6B6",
"$. c #B2B5BC",
"%. c #BCBCBC",
"&. c #C1BCBC",
"*. c #B6B9C0",
"=. c #BBBDC3",
"-. c #BEC0C6",
";. c #C4C4C4",
":. c #C2C5CA",
">. c #CCCBCC",
",. c #D1CECE",
"<. c #CBCDD2",
"1. c #CFD0D3",
"2. c #D3D3D4",
"3. c #D4D6D9",
"4. c #DCDBDB",
"5. c #DCDEE1",
"6. c #E4E3E3",
"7. c #EBEBEC",
"8. c #F0EEED",
"9. c #EFF0F1",
"0. c #F4F4F4",
"q. c #F7F7F8",
"w. c #FEFEFE",
"e. c None",
/* pixels */
"e.e.e.e.e.e.e.e.e.e.e.e.* @ e.e.e.e.e.e.e.e.e.e.e.e.e.e.e.e.e.e.",
"e.e.e.e.e.e.e.e.e.Q ( ! _ @.e.e.e.e.e.e.e.e.e.e.e.e.e.e.e.e.e.e.",
"e.e.e.e.e.e.e.V ;.q.w.w.w.w.q.e.e.e.e.e.e.e.e.e.e.e.e.e.e.e.e.e.",
"e.e.e.e.e.e.Q 6.w.w.w.w.w.w.w.| ; < e.e.e.e.e.e.e.e.e.e.e.e.e.e.",
"e.e.e.e.e.G 0.w.w.w.w.w.w.q.! 7 3 7 9 q t e.e.e.e.y   e.e.e.e.e.",
"e.e.e.e.e.7.w.w.w.w.w.w.w.! 1 3 8 t u f f a L q.q.6.g   e.e.e.e.",
"e.e.e.e.4.w.w.w.w.w.w.w.X.1 3 8 q p f l m g L q.w.w.7.N   e.e.e.",
"e.e.e.0 ;.w.w.w.w.0.0.0.W - 3 8 t a f m m l V 9.w.w.w.q.G . e.e.",
"e.e.2 a V 3.w.0.0.q.w.w.6.i 3 8 q u a f f f l 6.w.w.w.w.q.E e.e.",
"e.* q f m H 6.q.w.w.w.w.w.X.3 7 8 q t t t q q ,.w.w.w.w.w.6.e.e.",
"e.> q a a H q.w.w.w.w.w.w.q.K ; 3 7 7 8 7 3 7 &.w.w.w.w.w.w.H e.",
"e.- 3 8 q | 7.9.w.w.w.w.w.w.6.k & ; ; 1 q B X.6.q.w.w.w.w.w.%.e.",
"X % - ; 9 >.Z x S  .7.w.0.q.w.7.K h L X.4.w.w.w.0.q.w.w.w.w.6.e.",
"X % % # z -.w Y R Z 7.9.R I U [ :.1.0.w.w.w.w.w.w.9.w.w.w.w.9.e.",
"X % % % ` ^ S S I ~ w.:.R $.s U x s x ^ <.O.1.q.w.q.0.w.w.q.7.e.",
"X $ % 9 ,.] 7.w. .n *.R =.:.^ 7.s Z S x b n s R o.w.q.&.( L M * ",
"o j X.6.9.q.w.w.5.R b Y 0.) :.*.x F s x o.w.[ s O.w.9.h 8 p p > ",
"N q.w.w.q.q.w.w.w.w.q.w.w.3.0.O.x x c x Y $.S x 4.w.4.9 q l l > ",
"_ w.w.w.w.9.q.w.w.w.w.w.w.w.0.q.9.5.5.1.Y n R e b { X.< q f f , ",
"%.w.w.w.w.w.q.q.w.9.2.@./ G N 1.w.w.w.w.w.w.q.2.O.+.K & 8 u u * ",
"e.q.w.w.w.w.w.6.m 4 @ + @ : 4 g ;.w.w.w.w.w.w.w.w.8.9 % 3 8 5 e.",
"e.;.w.w.w.w.w.4.@   . @ , 6 r y m ;.w.w.w.w.w.w.w.| % % & 3 * e.",
"e.a 2.w.w.w.w.4.@ . @ , 4 r d m m N 1.w.w.w.w.q.9.B # % % & e.e.",
"e.e.p 6.w.w.w.6., . : 4 6 y g m m y V 6.q.9.9.q.w.#.& % % X e.e.",
"e.e.X V q.w.w.9.r + : 4 6 y d d y 6 g 7.q.w.w.w.w.q.P & O e.e.e.",
"e.e.e.< X.w.w.w.G + , 4 6 r r r 6 6 @.w.w.w.w.w.w.w.q.e.e.e.e.e.",
"e.e.e.e.M 4.q.9.@.6 : , 4 4 4 4 , R q.w.w.w.w.w.w.w.q.e.e.e.e.e.",
"e.e.e.e.e.E 9.w.q.6._ d 4 : : @ N 7.w.w.w.w.w.w.w.q.%.e.e.e.e.e.",
"e.e.e.e.e.e.;.9.w.w.w.q.,.} J E 6.w.w.w.w.w.w.w.9.%.e.e.e.e.e.e.",
"e.e.e.e.e.e.e._ 4.q.w.w.w.w.w.q.7.w.w.w.w.w.7.>./ e.e.e.e.e.e.e.",
"e.e.e.e.e.e.e.e.e.} 2.9.q.w.w.w.,.` | | | ! N e.e.e.e.e.e.e.e.e.",
"e.e.e.e.e.e.e.e.e.e.e.e...;.;.@.t O % * e.e.e.e.e.e.e.e.e.e.e.e."
};
