/* XPM */
static char *_782a78b59ea46eef41faf2aa03ab29a[] = {
/* columns rows colors chars-per-pixel */
"80 80 163 2 ",
"   c #010101",
".  c #0A0303",
"X  c #0C0B0B",
"o  c #150505",
"O  c #1A0707",
"+  c #150D0D",
"@  c #1D0B0B",
"#  c #00071E",
"$  c #00091F",
"%  c #141313",
"&  c #1B1414",
"*  c #1C1B1B",
"=  c #240707",
"-  c #250A0A",
";  c #280B0B",
":  c #201515",
">  c #2D1313",
",  c #221C1C",
"<  c #2C1A1A",
"1  c #301717",
"2  c #331B1B",
"3  c #010C22",
"4  c #041027",
"5  c #061228",
"6  c #09152B",
"7  c #0D192E",
"8  c #0F1B30",
"9  c #121D32",
"0  c #152134",
"q  c #182337",
"w  c #1B263A",
"e  c #1E2A3D",
"r  c #242424",
"t  c #2A2323",
"y  c #2C2C2C",
"u  c #372121",
"i  c #3A2424",
"p  c #372D2D",
"a  c #3D2A2A",
"s  c #212B3E",
"d  c #333333",
"f  c #3B3333",
"g  c #3B3B3B",
"h  c #412E2E",
"j  c #443434",
"k  c #493636",
"l  c #463A3A",
"z  c #4B3C3C",
"x  c #503F3F",
"c  c #232D41",
"v  c #263043",
"b  c #293346",
"n  c #2E3749",
"m  c #2F384A",
"M  c #323B4D",
"N  c #363F50",
"B  c #3B4455",
"V  c #3F4858",
"C  c #434343",
"Z  c #4E4141",
"A  c #4C4C4C",
"S  c #524545",
"D  c #554B4B",
"F  c #594E4E",
"G  c #444C5C",
"H  c #484F5E",
"J  c #535353",
"K  c #5B5353",
"L  c #5D5A5A",
"P  c #645555",
"I  c #625C5C",
"U  c #6B5D5D",
"Y  c #4D5464",
"T  c #515866",
"R  c #545B6A",
"E  c #5A606E",
"W  c #5C6371",
"Q  c #656363",
"!  c #6A6565",
"~  c #6B6A6A",
"^  c #736565",
"/  c #746A6A",
"(  c #786C6C",
")  c #606674",
"_  c #636976",
"`  c #666D79",
"'  c #6A6F7C",
"]  c #6B727E",
"[  c #747474",
"{  c #7B7474",
"}  c #7B7B7B",
"|  c #827777",
" . c #827B7B",
".. c #887F7F",
"X. c #6E7480",
"o. c #717682",
"O. c #747985",
"+. c #777C88",
"@. c #797E8A",
"#. c #7D828D",
"$. c #858484",
"%. c #8A8484",
"&. c #80848F",
"*. c #8D8C8C",
"=. c #928C8C",
"-. c #988F8F",
";. c #828691",
":. c #858994",
">. c #888D97",
",. c #8B8F99",
"<. c #8D919A",
"1. c #949393",
"2. c #9C9595",
"3. c #91959E",
"4. c #9D9C9C",
"5. c #A29D9D",
"6. c #9297A0",
"7. c #969AA2",
"8. c #9A9DA5",
"9. c #9FA2AA",
"0. c #A5A5A5",
"q. c #ABA6A6",
"w. c #A2A5AC",
"e. c #A6A8AF",
"r. c #ACABAB",
"t. c #B2ADAD",
"y. c #A6A9B0",
"u. c #AAADB4",
"i. c #AEB0B7",
"p. c #AFB1B8",
"a. c #B5B3B3",
"s. c #BAB5B5",
"d. c #B3B5BB",
"f. c #B6B8BE",
"g. c #BCBBBB",
"h. c #C1BEBE",
"j. c #BBBDC3",
"k. c #BFC1C6",
"l. c #C5C4C4",
"z. c #C9C7C7",
"x. c #C2C4C9",
"c. c #C6C8CD",
"v. c #CCCBCC",
"b. c #D2CFCF",
"n. c #CCCED2",
"m. c #CFD0D4",
"M. c #D5D4D5",
"N. c #D5D6D9",
"B. c #DCDCDD",
"V. c #E0DFDF",
"C. c #DDDEE1",
"Z. c #DFE0E3",
"A. c #E3E3E3",
"S. c #E8E7E7",
"D. c #E7E7E9",
"F. c #EBEBEC",
"G. c #EEEFF0",
"H. c #EFF0F1",
"J. c #F4F4F4",
"K. c #F7F7F8",
"L. c #F7F8F8",
"P. c #FFFFFF",
"I. c None",
/* pixels */
"I.I.I.I.I.I.I.I.I.I.I.I.I.I.I.I.I.I.I.I.I.I.I.I.I.I.I.I.I.I.I.I.I.                            I.I.I.I.I.I.I.I.I.I.I.I.I.I.I.I.I.I.I.I.I.I.I.I.I.I.I.I.I.I.I.I.I.",
"I.I.I.I.I.I.I.I.I.I.I.I.I.I.I.I.I.I.I.I.I.I.I.I.I.I.I.I.I.  . & r * I.I.I.I.I.I.I.I.I.I.I.I.I.        I.I.I.I.I.I.I.I.I.I.I.I.I.I.I.I.I.I.I.I.I.I.I.I.I.I.I.I.I.",
"I.I.I.I.I.I.I.I.I.I.I.I.I.I.I.I.I.I.I.I.I.I.I.I.I.I.  . . o < Z L l I.I.I.I.I.I.I.I.I.I.I.I.I.I.I.I.I.      I.I.I.I.I.I.I.I.I.I.I.I.I.I.I.I.I.I.I.I.I.I.I.I.I.I.",
"I.I.I.I.I.I.I.I.I.I.I.I.I.I.I.I.I.I.I.I.I.I.I.I.f J K P U U / } %.%.%.I.I.I.I.I.I.I.I.I.I.I.I.I.I.I.I.I.I.I.    I.I.I.I.I.I.I.I.I.I.I.I.I.I.I.I.I.I.I.I.I.I.I.I.",
"I.I.I.I.I.I.I.I.I.I.I.I.I.I.I.I.I.I.I.I.I.I.A 4.A.L.P.L.P.P.P.P.P.P.P.F.z.I.I.I.I.I.I.I.I.I.I.I.I.I.I.I.I.I.I.I.I.  I.I.I.I.I.I.I.I.I.I.I.I.I.I.I.I.I.I.I.I.I.I.",
"I.I.I.I.I.I.I.I.I.I.I.I.I.I.I.I.I.I.I.I.d 1.A.P.P.P.P.P.P.P.P.P.P.P.P.P.L.v.I.I.I.I.I.I.I.I.I.I.I.I.I.I.I.I.I.I.I.I.I.  I.I.I.I.I.I.I.I.I.I.I.I.I.I.I.I.I.I.I.I.",
"I.I.I.I.I.I.I.I.I.I.I.I.I.I.I.I.I.I.X ! M.P.P.P.P.P.P.P.P.P.P.P.P.P.P.P.P.J.I.I.I.I.I.I.I.I.I.I.I.I.I.I.I.I.I.I.I.I.I.I.    I.I.I.I.I.I.I.I.I.I.I.I.I.I.I.I.I.I.",
"I.I.I.I.I.I.I.I.I.I.I.I.I.I.I.I.I.y 4.J.P.P.P.P.P.P.P.P.P.P.P.P.P.P.P.P.P.P.S.I.I.I.I.I.I.I.I.I.I.I.I.I.I.I.I.I.I.I.I.I.I.I.  I.I.I.I.I.I.I.I.I.I.I.I.I.I.I.I.I.",
"I.I.I.I.I.I.I.I.I.I.I.I.I.I.I.  A z.P.P.P.P.P.P.P.P.P.P.P.P.P.P.P.P.P.P.P.P.K.=.I.> < I.I.I.I.I.I.I.I.I.I.I.I.I.I.I.I.I.I.I.I.    I.I.I.I.I.I.I.I.I.I.I.I.I.I.I.",
"I.I.I.I.I.I.I.I.I.I.I.I.I.I.. Q A.P.P.P.P.P.P.P.P.P.P.P.P.P.P.P.P.P.P.P.P.F.%.i 2 u i i a i a p I.I.I.I.I.I.I.I.I.I.I.I.I.I.I.I.    I.I.I.I.I.I.I.I.I.I.I.I.I.I.",
"I.I.I.I.I.I.I.I.I.I.I.I.I.  J H.P.P.P.P.P.P.P.P.P.P.P.P.P.P.P.P.P.P.P.P.V.U 1 u u a a a h j j k k k j f I.I.I.I.I.I.I.I.I.I.I.I.      I.I.I.I.I.I.I.I.I.I.I.I.I.",
"I.I.I.I.I.I.I.I.I.I.I.I.  I.N.P.P.P.P.P.P.P.P.P.P.P.P.P.P.P.P.P.P.P.P.b.D 2 u u a a h j k l z l Z Z Z Z Z l I.I.I.I.I.I.I.I.I.I.        I.I.I.I.I.I.I.I.I.I.I.I.",
"I.I.I.I.I.I.I.I.I.I.I.  I.I.J.P.P.P.P.P.P.P.P.P.P.P.P.P.P.P.P.P.P.P.z.x 2 u u h h j j l l x Z S S A D D D D S l I.I.n.A.S.F.F.B.Q         I.I.I.I.I.I.I.I.I.I.I.",
"I.I.I.I.I.I.I.I.I.I.  I.I.B.P.P.P.P.P.P.P.P.P.P.P.P.P.P.P.P.P.P.P.b.x 2 u i h h j j l x Z Z S D D F D K F K F D { H.P.P.P.P.P.P.J.[ .       I.I.I.I.I.I.I.I.I.I.",
"I.I.I.I.I.I.I.I.I.  I.I.z.L.P.P.P.P.P.P.P.P.P.P.P.P.P.P.P.P.P.P.B.S 1 u i h h h j z x Z S D F K K K L K L K K F } K.P.P.P.P.P.P.P.J.$.X       I.I.I.I.I.I.I.I.I.",
"I.I.I.I.I.I.I.I.  I.I.I.J.P.P.P.P.P.P.P.P.P.P.P.P.P.P.P.P.P.P.G.^ > 2 i i h h h k l Z S D F K K I I I Q I I L K / G.P.P.P.P.P.P.P.P.L.1.%       I.I.I.I.I.I.I.I.",
"I.I.I.I.I.I.I.I.  I.I.S.P.P.P.P.P.P.P.P.P.P.P.P.P.P.P.P.P.P.P.-.1 2 u i a h j k z Z S D F K K I I Q ! ! ! I I K ! A.P.P.P.P.P.P.P.P.P.P.0.&     I.I.I.I.I.I.I.I.",
"I.I.I.I.I.I.I.  I.I.M.P.P.P.P.P.P.P.P.P.P.P.P.P.P.P.P.P.P.L.v.h 1 2 u a h h j l l Z S D F K L I ! ! ~ ~ ! Q I I P M.P.P.P.P.P.P.P.P.P.P.P.t.*     I.I.I.I.I.I.I.",
"I.I.I.I.I.I.  I.I.l q.P.P.P.P.P.P.P.P.P.P.P.P.P.P.L.J.A.A.A.h.h 1 u u i h h j z Z S S D K K I I Q ! ~ Q ! Q I K K l.P.P.P.P.P.P.P.P.P.P.P.P.t.*     I.I.I.I.I.I.",
"I.I.I.I.I.I.  p Z S K n.P.P.P.P.P.P.P.P.P.P.L.F.A.A.A.J.L.P.P.-.2 2 u i h h j l x Z D D D K L I I I Q Q I I L K D t.P.P.P.P.P.P.P.P.P.P.P.P.P.t.*   I.I.I.I.I.I.",
"I.I.I.I.I.  t x D D F / A.P.P.P.P.P.P.P.J.A.V.S.J.P.P.P.P.P.P.F.P 1 u i h h j k z Z Z D D K K K I I L I K K K F D 2.P.P.P.P.P.P.P.P.P.P.P.P.P.P.g.d   I.I.I.I.I.",
"I.I.I.I.I.% l D K P I L  .S.P.P.P.P.S.A.A.J.P.P.P.P.P.P.P.P.P.P.l.h u i i h j j l x Z S D D F F K K K K K K D D Z %.P.P.P.P.P.P.P.P.P.P.P.P.P.P.P.M.X I.I.I.I.I.",
"I.I.I.I.. f S D K Q Q Q L  .B.P.S.A.S.L.P.P.P.P.P.P.P.P.P.P.P.P.P...2 i a h h j k l x Z S S D D D D D D D S S S l ( L.P.P.P.P.P.P.P.P.P.P.P.P.P.P.J.I.  I.I.I.I.",
"I.I.I.I., l S D K Q ~ ! Q K ! l.S.L.P.P.P.P.P.P.P.P.P.P.P.P.P.P.P.A.x u i a h h j j l z x x Z Z Z S S S Z Z Z l j I F.P.P.P.P.P.P.P.P.P.P.P.P.P.P.P.b.  I.I.I.I.",
"I.I.I.X a l Z D K I ! Q I K K B.P.P.P.P.P.P.P.P.P.P.P.P.P.P.P.P.P.P.q.i u i h h h h h k k x k x l x x z z z l k j S A.P.P.P.P.P.P.P.P.P.P.P.P.P.P.P.S.I.  I.I.I.",
"I.I.I.: h k Z S K K L I K D  .L.P.P.P.P.P.P.P.P.P.P.P.P.P.P.P.P.P.P.J.( 2 u i i h h h h j k j j l k j j j j j h h j b.P.P.P.P.P.P.P.P.P.P.P.P.P.P.P.L.I.  I.I.I.",
"I.I.. 2 h j z Z D D F K D D t.P.P.P.P.P.P.P.P.P.P.P.P.P.P.P.P.P.P.P.P.B.x 1 2 i i h i h h h h h j h h h h h h i i i g.P.P.P.P.P.P.P.P.P.P.P.P.P.P.P.P.B.I.  I.I.",
"I.I.X 2 i h j z Z S S S S D A.P.P.P.P.P.P.P.P.P.P.P.P.P.P.P.P.P.P.P.P.P.h.h 1 2 2 u u h h u h h a a h i h i u u i D t.L.P.P.P.P.P.P.P.P.P.P.P.P.P.P.P.S.I.  I.I.",
"I.I.+ 2 u i h j l x x x l { P.P.P.P.P.P.P.P.P.P.P.P.P.P.P.P.P.P.P.P.P.P.P.5.u 1 2 2 2 u u u u u u u u u 2 u k ( a.S.J.A.P.P.P.P.P.P.P.P.P.P.P.P.P.P.P.J.I.  I.I.",
"I.. - > 2 u i h h j j j j a.P.J.C.J.P.P.P.P.P.P.P.P.P.P.P.P.P.P.P.P.P.P.P.K.2.2 > 1 1 1 1 2 2 2 2 1 2 k / r.V.K.P.P.P.F.A.P.P.P.P.P.P.P.P.P.P.P.P.P.P.P.z.I.  I.",
"I.. - ; > 2 2 i i a a a Z A.P.y.c B ) >.i.m.F.L.P.P.P.P.P.P.P.P.P.P.P.P.P.P.P.q.h ; > ; > ; > i x { t.V.L.P.P.P.P.P.P.P.S.S.P.P.P.P.P.P.P.P.P.P.P.P.P.P.M.I.  I.",
"I.. - ; ; > 1 2 u u u 2 { P.L.W 3 # # 3 4 9 N 8.@.N.P.P.P.P.P.P.P.P.P.P.P.P.P.P.M.^ 2 i x ( 2.v.F.P.P.P.P.P.P.P.P.P.P.P.P.A.F.P.P.P.P.P.P.P.P.P.P.P.P.P.A.I.  I.",
"I.o ; ; ; ; ; > > 1 1 2 a.P.C.c M +.R M w 4 v E 7 x.P.P.P.P.C.p.D.G.K.P.P.P.P.P.P.J.g.B.G.P.P.P.P.P.P.P.P.P.P.P.P.P.P.P.P.P.B.J.P.P.P.P.P.P.P.P.P.P.P.P.F.I.  I.",
"  o ; ; ; ; ; ; ; > ; j A.P.u.4 ` A.G.D.N.d.9.N V H.P.P.P.P.+.7 6.G Y O.8.x.B.J.P.G.G.P.P.P.P.P.P.P.P.P.P.P.P.P.P.P.P.P.P.P.L.B.L.P.P.P.P.P.P.P.P.P.P.P.J.I.I.  ",
"  o ; ; ; ; ; ; ; ; = ( P.P.) 3 7 v G ' 6.n.c.7 #.P.P.P.P.G.N M ;.3 $ 3 4 7 e B @.p.y.m.S.K.P.P.P.P.P.P.P.P.P.P.P.P.P.P.P.P.P.J.V.L.P.P.P.P.P.P.P.P.P.P.L.I.I.  ",
"  O = ; ; ; ; ; ; ; ; t.P.A.b 6 7 3 3 $ $ X.:.7 j.P.P.P.P.x.7 ' m.,._ s 4 6 3 # T Y 4 0 n Y o.8.n.P.P.P.P.P.P.P.P.P.P.P.P.P.P.P.F.A.P.P.P.P.P.P.P.P.P.P.L.I.I.  ",
"  O ; ; ; = ; ; ; = h A.P.i.4 O.k.7.o.Y M w.G b D.P.P.P.P.#.4 p.P.P.J.G e u.9.@.3.e 5 5 3 $ 3 3 q j.P.B.9.i.n.F.K.P.P.P.P.P.P.P.P.S.A.P.P.P.P.P.P.P.P.P.P.I.I.  ",
"  O - ; ; ; ; ; ; = ^ P.P.' 6 x.P.P.P.J.D.k.9 _ P.P.P.P.J.V b A.P.P.m.9 W P.P.P.8.4 :.d.,.) V w 3 :.x.n 3 4 9 n Y >.F.P.A.J.P.P.P.P.A.F.P.P.P.P.P.L.F.M.a.{ I.  ",
"  O ; ; ; ; ; ; = = q.P.D.b N F.P.P.P.P.P.8.3 :.F.P.P.P.n.7 ) P.P.P.6.4 w.P.P.L.R 4 +.j.B.D.F.>.3 >.V 6 n q 6 3 3 3 7.N.m :.P.P.P.P.P.V.F.S.b.a.-.{ I D x f I.  ",
"  I.- ; ; = = > h U M.P.F.;.w.P.P.P.P.P.P.6.3 0 M R #.w._ 4 u.P.P.L.Y w B.P.P.C.c 3 3 4 w N E m M <.4 O.A.n.i.>.T 4 _ 6.4 8.P.P.P.P.P.J.{ Z j j l Z S D S l I.  ",
"  I.- - - i / s.A.L.A.J.P.P.P.P.P.P.P.P.P.v.b 3 3 # 3 4 3 G F.P.P.B.w R L.P.P.w.4 M m 0 4 3 3 6 y.X.7 k.P.P.P.P.j.5 X.T w N.P.P.P.P.P.S.k 2 h k Z D F F D Z I.  ",
"  I.- i ..N.P.P.P.P.J.V.P.P.P.P.P.P.P.P.P.P.N.y.&.W N s G m.P.P.P.u.5 7.P.P.P.W 9 k.D.m.i.>.V 6 y.M N F.P.P.P.P.#.7 <.w R K.P.P.P.P.P.z.i i h l S K K L K S I.  ",
"  I. .M.P.P.P.P.P.P.P.A.F.P.P.P.P.P.P.P.P.P.P.P.P.L.F.B.F.P.P.P.P.O.w N.P.P.A.s 5 G X.7.j.B.o.7 O.7 @.P.P.P.P.G.B n ;.4 7.P.P.P.P.P.P.q.1 i j x D K Q I K D t . ",
"  I.S.P.P.P.P.P.P.P.P.L.B.P.P.P.P.P.P.P.P.P.P.P.P.P.P.P.P.P.P.P.P.m.j.L.P.P.u.7 3 $ 3 3 7 w 5 B O.3 :.D.J.P.P.c.6 _ R q N.P.P.P.P.P.P.| 1 i j x D L Q Q I F y   ",
"  } L.P.P.P.P.P.P.P.P.P.J.A.P.P.P.P.P.P.P.P.P.P.P.P.P.P.P.P.P.P.P.P.P.P.P.J.n.f.3.' G b 9 4 s d.6.3 7 b H X.6.R 6 ,.e T L.P.P.P.P.P.J.F 1 i j x D I ! ! I F t   ",
"  *.P.P.P.P.P.P.P.P.P.P.P.A.F.P.P.P.P.P.P.P.P.P.P.P.P.P.P.P.P.P.P.P.P.P.P.A.J.P.P.P.J.A.c.i.m.P.N.B 7 3 $ 3 $ 3 W 7.3 G y.n.D.J.P.P.B.i 2 i j x F L Q Q I K r   ",
". 0.P.P.P.P.P.P.P.P.P.P.P.L.V.J.P.P.P.P.P.P.P.P.P.P.P.P.P.P.P.P.P.P.P.P.L.A.P.P.P.P.P.P.P.P.P.P.P.A.d.6.` G M ` B.W $ 3 3 8 b G 7.P.t.> 1 i j l D K I I K D * I.",
"I.0.P.P.P.P.P.P.P.P.P.P.P.P.L.B.J.P.P.P.P.P.P.P.P.P.P.P.P.P.P.P.P.P.L.S.M.J.P.P.P.P.P.P.P.P.P.P.P.P.P.P.P.J.F.K.P.6.E N w 7 3 # #.P.| - 2 u j l S F K K F S % I.",
"I.r.P.P.P.P.P.P.P.P.P.P.P.P.P.J.B.J.P.P.P.P.P.P.P.P.P.P.P.J.Z.k.0.} L g J v.P.P.P.P.P.P.P.P.P.P.P.P.P.P.P.P.P.P.P.P.L.F.N.f.3.o.b.J.x ; > u h h x D F F D z X I.",
"I.0.P.P.P.P.P.P.P.P.P.P.P.P.P.P.L.A.A.L.P.P.P.P.J.B.k.2.~ A y r * * r r r g r.L.P.P.P.P.P.P.P.P.P.P.P.P.P.P.P.P.P.P.P.P.P.P.P.P.P.z.2 = > 2 h h k x S S S p . I.",
"I.1.J.P.P.P.P.P.P.P.P.P.P.P.P.P.P.P.S.M.M.g.1.Q g , X   X X % % * r y y d d g 1.J.P.P.P.P.P.P.P.P.P.P.P.P.P.P.P.P.P.P.P.P.P.P.P.P.=.= ; > 1 h h j l Z x x t   I.",
"I.I.B.P.P.P.P.P.P.P.P.P.P.P.P.P.P.P.P.V.d .           X X % * r r r y d d g g C  .A.P.P.P.P.P.P.P.P.P.P.P.P.P.P.P.P.P.P.P.P.P.P.J.S = ; ; > 1 h h j k k j % I.I.",
"I.I.2.P.P.P.P.P.P.P.P.P.P.P.P.P.P.P.P.B.*       .   X X % * r r y d d d g C C C A [ A.P.P.P.P.P.P.P.P.P.P.P.P.P.P.P.P.P.P.P.P.P.h.> = ; ; > 1 u a a j h i X I.I.",
"I.I.g M.P.P.P.P.P.P.P.P.P.P.P.P.P.P.P.B.*         X % % * r r r d d g C C C J J J J } A.P.P.P.P.P.P.P.P.P.P.P.P.P.P.P.P.P.P.P.L.^ = = ; ; ; > 2 u a i a &   I.I.",
"I.I.I.[ L.P.P.P.P.P.P.P.P.P.P.P.P.P.P.N.*       X X % * * r y d d g g C A J J L L L L [ S.P.P.P.P.P.P.P.P.P.P.P.P.P.P.P.P.P.P.l.2 ; ; ; ; ; ; 1 2 2 i u . I.I.I.",
"I.I.I.* r.P.P.P.P.P.P.P.P.P.P.P.P.P.P.M.&     X X % * * r r d d g C C A J J L R Q Q I L $.G.P.P.P.P.P.P.P.P.P.P.P.P.P.P.P.L.V.F = = ; ; ; ; ; ; > 1 2 @   I.I.I.",
"I.I.I.I., s.P.P.P.P.P.P.P.P.P.P.P.P.P.B.*   X X X % * r y y d g C C A J J L Q Q ) Q Q L J 1.L.P.P.P.P.P.P.P.P.P.P.P.P.J.A.B.A.P = ; ; ; ; ; ; ; ; > ; . I.I.I.I.",
"I.I.I.I.. u l.P.P.P.P.P.P.P.P.P.P.P.P.B.*   X X % * r r y d d g C A J J L Q W ~ ~ Q L L J J d.P.P.P.P.P.P.P.P.P.J.S.B.B.J.P.P.s.> ; ; ; ; ; ; ; ; - X   I.I.I.I.",
"I.I.I.I.I.o j B.P.P.P.P.P.P.P.P.P.P.P.A.r . X % * * r r y d g g C A J J L Q Q Q Q Q L J A C L Z.P.P.P.L.J.F.A.B.Z.S.L.P.P.P.P.J.P = ; ; ; ; ; = - @   I.I.I.I.I.",
"I.I.I.I.I.. = K S.P.P.P.P.P.P.P.P.P.P.H.d . X % * r r y d g g C C A J J L L Q Q L L J J A C g $.A.A.A.A.A.F.J.L.P.P.P.P.P.P.P.P.g.> ; ; ; ; ; ; - I.  I.I.I.I.I.",
"I.I.I.I.I.I.o -  .L.P.P.P.P.P.P.P.P.P.L.A X X % * r r y d d g C A A J J J L L L J J A A C g d $.J.J.L.P.P.P.P.P.P.P.P.P.P.P.P.P.L. .- ; ; ; - - I.  I.I.I.I.I.I.",
"I.I.I.I.I.I.. - 1 q.P.P.P.P.P.P.P.P.P.P.[ X % * * r y y d g g C C A A J J J J J J A A g g g C M.P.P.P.P.P.P.P.P.P.P.P.P.P.P.P.P.P.F.( ; - - @ I.I.  I.I.I.I.I.I.",
"I.I.I.I.I.I.I.o 1 x M.P.P.P.P.P.P.P.P.P.7.X % * * r y y d d g g C A A A A A A A A C g g g y %.P.P.P.P.P.P.P.P.P.P.P.P.P.P.P.P.P.P.P.J.2.u I.I.I.  I.I.I.I.I.I.I.",
"I.I.I.I.I.I.I.I.< a { J.P.P.P.P.P.P.P.L.n.* X * * r y y d g g g C C C C A C C C g g g g y A A.P.P.P.P.P.P.P.P.P.P.P.P.P.P.P.P.P.P.P.P.P.5.I.I.  I.I.I.I.I.I.I.I.",
"I.I.I.I.I.I.I.I.+ f S t.P.P.P.P.P.P.P.P.J.C % * * r y y y d g g g C g C g C C g g d d y y t.P.P.P.P.P.P.P.P.P.P.P.P.P.P.P.P.P.P.P.P.P.F.I.I.    I.I.I.I.I.I.I.I.",
"I.I.I.I.I.I.I.I.I.t D ! B.P.P.P.P.P.P.P.P.*.% & * r r y y d d d d g g g g g d d d y y r } L.P.P.P.P.P.P.P.P.P.P.P.P.P.P.P.P.P.P.P.P.P.Z.I.I.  I.I.I.I.I.I.I.I.I.",
"I.I.I.I.I.I.I.I.I.I.f L *.J.P.L.P.L.J.S.B.a.A * * * r r y y y d d d d d d y d d y r r J S.P.P.P.P.P.P.P.P.P.P.P.P.P.P.P.P.P.P.P.P.P.P.M.I.  I.I.I.I.I.I.I.I.I.I.",
"I.I.I.I.I.I.I.I.I.I.I.C L 1.M.B.B.B.B.A.F.L.H.r.J r * r r r y y d y y y y y r r r * C N.P.P.P.P.P.P.P.P.P.P.P.P.P.P.P.P.P.P.P.P.P.P.P.1.  I.I.I.I.I.I.I.I.I.I.I.",
"I.I.I.I.I.I.I.I.I.I.I.I.d D z.P.P.P.P.P.P.P.P.P.J.g.[ d r r r r r y r y r r r * * d z.P.P.P.P.P.P.P.P.P.P.P.P.P.P.P.P.P.P.P.P.P.P.P.z.g I.I.I.I.I.I.I.I.I.I.I.I.",
"I.I.I.I.I.I.I.I.I.I.I.I.I., =.P.P.P.P.P.P.P.P.P.P.P.L.M.3.J y r * r r * * * * & g c.P.P.P.P.P.P.P.P.P.P.P.P.P.P.P.P.P.P.P.P.P.P.P.z.C I.I.I.I.I.I.I.I.I.I.I.I.I.",
"I.I.I.I.I.I.I.I.I.I.I.I.I.I.A b.P.P.P.P.P.P.P.P.P.P.P.P.P.J.v.4.! g r * * % % A b.P.P.P.P.P.P.P.P.P.P.P.P.P.P.P.P.P.P.P.P.P.P.P.g.g I.I.I.I.I.I.I.I.I.I.I.I.I.I.",
"I.I.I.I.I.I.I.I.I.I.I.I.I.I.I.C r.J.P.P.P.P.P.P.P.P.P.P.P.P.P.P.L.D.v.a.4.<.$.b.P.P.P.P.P.P.P.P.P.P.P.P.P.P.P.P.P.P.P.P.P.P.J.4.d I.I.I.I.I.I.I.I.I.I.I.I.I.I.I.",
"I.I.I.I.I.I.I.I.I.I.I.I.I.I.I.I.I.} B.P.P.P.P.P.P.P.P.P.P.P.P.P.P.P.P.P.P.P.J.g.F.P.P.P.P.P.P.P.P.P.P.P.P.P.P.P.P.P.P.P.P.M.[ I.I.I.I.I.I.I.I.I.I.I.I.I.I.I.I.I.",
"I.I.I.I.I.I.I.I.I.I.I.I.I.I.I.I.I.I.C 0.F.P.P.P.P.P.P.P.P.P.P.P.P.P.P.P.P.P.P.S.g.J.P.P.P.P.P.P.P.P.P.P.P.P.P.P.P.P.P.A.2.g I.I.I.I.I.I.I.I.I.I.I.I.I.I.I.I.I.I.",
"I.I.I.I.I.I.I.I.I.I.I.I.I.I.I.I.I.I.I.I.Q g.J.P.P.P.P.P.P.P.P.P.P.P.P.P.P.P.P.P.B.h.P.P.P.P.P.P.P.P.P.P.P.P.P.P.P.M.1.C I.I.I.I.I.I.I.I.I.I.I.I.I.I.I.I.I.I.I.I.",
"I.I.I.I.I.I.I.I.I.I.I.I.I.I.I.I.I.I.I.I.I.I.~ g.J.P.P.P.P.P.P.P.P.P.P.P.P.P.P.P.P.v.n.P.P.P.P.P.P.P.P.L.J.A.z.4.L r I.I.I.I.I.I.I.I.I.I.I.I.I.I.I.I.I.I.I.I.I.I.",
"I.I.I.I.I.I.I.I.I.I.I.I.I.I.I.I.I.I.I.I.I.I.I.I.Q r.A.L.P.P.P.P.P.P.P.P.P.P.P.P.P.P.1.{ =.2.2.5.5.2.1.%.{ L f & I.I.I.I.I.I.I.I.I.I.I.I.I.I.I.I.I.I.I.I.I.I.I.I.",
"I.I.I.I.I.I.I.I.I.I.I.I.I.I.I.I.I.I.I.I.I.I.I.I.I.I.C $.a.A.J.P.P.P.P.P.P.P.P.P.F.=.u = > > u a f j j f y & I.I.I.I.I.I.I.I.I.I.I.I.I.I.I.I.I.I.I.I.I.I.I.I.I.I.",
"I.I.I.I.I.I.I.I.I.I.I.I.I.I.I.I.I.I.I.I.I.I.I.I.I.I.I.I.I.C [ 2.a.b.V.S.J.J.J.l.F = = ; - @ @ @ + + X I.I.I.I.I.I.I.I.I.I.I.I.I.I.I.I.I.I.I.I.I.I.I.I.I.I.I.I.I.",
"I.I.I.I.I.I.I.I.I.I.I.I.I.I.I.I.I.I.I.I.I.I.I.I.I.I.I.I.I.I.I.I.I.I.g A A A C , . o . . . . I.I.I.I.I.I.I.I.I.I.I.I.I.I.I.I.I.I.I.I.I.I.I.I.I.I.I.I.I.I.I.I.I.I."
};
